<?xml version="1.0" encoding="UTF-8"?>
<svg id="Layer_7" data-name="Layer 7" xmlns="http://www.w3.org/2000/svg" xmlns:xlink="http://www.w3.org/1999/xlink" viewBox="0 0 1090.2 592.15">
  <defs>
    <clipPath id="clippath">
      <path d="m261.03,463.85c0,4.07-3.34,7.38-7.45,7.38h-32.46c-4.11,0-7.45-3.31-7.45-7.38v-86.43c0-4.07,3.34-7.38,7.45-7.38h32.46c4.11,0,7.45,3.31,7.45,7.38v86.43Z" fill="none" stroke-width="0"/>
    </clipPath>
  </defs>
  <g>
    <polygon points="706.9 535.18 383.3 535.18 57.79 535.18 57.79 592.15 383.3 592.15 706.9 592.15 1032.41 592.15 1032.41 535.18 706.9 535.18" fill="#334155" fill-rule="evenodd" stroke-width="0"/>
    <rect x=".1" y="487.37" width="1090" height="20.74" fill="#ffbe47" stroke-width="0"/>
    <rect x=".1" y="502.35" width="1089.92" height="5.76" fill="#fca400" stroke-width="0"/>
    <rect x="22.89" y="508.16" width="34.91" height="83.99" fill="#94a3b8" stroke-width="0"/>
    <polygon points="22.89 508.11 57.79 508.11 22.89 533.77 22.89 508.11" fill="#64748b" fill-rule="evenodd" stroke="#221814" stroke-miterlimit="10" stroke-width=".22"/>
    <path d="m67.43,554.12c1.49,0,2.7-1.21,2.7-2.69s-1.21-2.7-2.7-2.7-2.69,1.21-2.69,2.7,1.21,2.69,2.69,2.69h0Z" fill="#eee" fill-rule="evenodd" stroke-width="0"/>
    <path d="m67.43,566.35c1.49,0,2.7-1.21,2.7-2.69s-1.21-2.7-2.7-2.7-2.69,1.21-2.69,2.7,1.21,2.69,2.69,2.69h0Z" fill="#eee" fill-rule="evenodd" stroke-width="0"/>
    <path d="m67.43,578.6c1.49,0,2.7-1.21,2.7-2.7s-1.21-2.69-2.7-2.69-2.69,1.21-2.69,2.69,1.21,2.7,2.69,2.7h0Z" fill="#eee" fill-rule="evenodd" stroke-width="0"/>
    <rect x="1032.41" y="508.16" width="34.91" height="83.99" fill="#94a3b8" stroke-width="0"/>
    <polygon points="1032.41 508.68 1067.31 508.68 1032.41 534.35 1032.41 508.68" fill="#64748b" fill-rule="evenodd" stroke="#221814" stroke-miterlimit="10" stroke-width=".22"/>
    <path d="m1022.77,554.12c-1.49,0-2.7-1.21-2.7-2.69s1.21-2.7,2.7-2.7,2.69,1.21,2.69,2.7-1.21,2.69-2.69,2.69h0Z" fill="#eee" fill-rule="evenodd" stroke-width="0"/>
    <path d="m1022.77,566.35c-1.49,0-2.7-1.21-2.7-2.69s1.21-2.7,2.7-2.7,2.69,1.21,2.69,2.7-1.21,2.69-2.69,2.69h0Z" fill="#eee" fill-rule="evenodd" stroke-width="0"/>
    <path d="m1022.77,578.6c-1.49,0-2.7-1.21-2.7-2.7s1.21-2.69,2.7-2.69,2.69,1.21,2.69,2.69-1.21,2.7-2.69,2.7h0Z" fill="#eee" fill-rule="evenodd" stroke-width="0"/>
    <polygon points="188.4 391.34 153.4 444.64 148.17 441.22 183.18 387.91 186.48 388.58 188.4 391.34" fill="#41535b" fill-rule="evenodd" stroke-width="0"/>
    <polygon points="188.4 391.34 153.4 444.64 150.79 442.93 186.83 388.04 188.4 391.34" fill="#334650" fill-rule="evenodd" stroke-width="0"/>
    <path d="m183.18,387.91l10.97-11.01-5.72,14.37c-.54.31-1.34.95-1.77.69-.83-.52.81-2.26-.33-3.02-1.11-.73-2.16,1.45-2.94.94-.72-.47-.21-1.97-.21-1.97h0Z" fill="#f9d8c8" fill-rule="evenodd" stroke-width="0"/>
    <path d="m194.15,376.9l-5.72,14.37c-.54.31-1.34.95-1.77.69-.83-.52.81-2.26-.33-3.02l-.06-.03,7.88-12.01Z" fill="#dfbba9" fill-rule="evenodd" stroke-width="0"/>
    <polygon points="190.81 380.24 194.15 376.9 192.4 381.29 190.81 380.24" fill="#444342" fill-rule="evenodd" stroke-width="0"/>
    <polygon points="179.38 382.66 153.02 440.73 147.33 438.15 173.69 380.08 177.04 380.24 179.38 382.66" fill="#41535b" fill-rule="evenodd" stroke-width="0"/>
    <polygon points="179.38 382.66 153.02 440.73 150.17 439.44 177.31 379.64 179.38 382.66" fill="#334650" fill-rule="evenodd" stroke-width="0"/>
    <path d="m173.69,380.08l9.13-12.57-3.43,15.08c-.48.4-1.17,1.15-1.64.95-.9-.38.45-2.36-.8-2.93-1.2-.56-1.9,1.76-2.75,1.38-.78-.34-.51-1.91-.51-1.91h0Z" fill="#f9d8c8" fill-rule="evenodd" stroke-width="0"/>
    <path d="m182.82,367.51l-3.43,15.08c-.48.4-1.17,1.15-1.64.95-.9-.38.45-2.36-.8-2.93l-.06-.03,5.93-13.08Z" fill="#dfbba9" fill-rule="evenodd" stroke-width="0"/>
    <polygon points="180.05 371.33 182.82 367.51 181.78 372.12 180.05 371.33" fill="#444342" fill-rule="evenodd" stroke-width="0"/>
    <path d="m163.44,373.8l-4.21-.41.99-10.12c.03-.31.16-.58.38-.78l.78-.27,2.12.22c.58.06,1,.62.93,1.24l-.99,10.12Z" fill="#b3b3b3" fill-rule="evenodd" stroke-width="0"/>
    <path d="m166.27,379.68l-10.94-1.08.87-8.99c.04-.4.22-.76.5-1.01.28-.25.65-.38,1.01-.34l8.22.8c.37.04.69.23.92.54.23.3.34.7.3,1.09l-.88,9Z" fill="#5d5a5a" fill-rule="evenodd" stroke-width="0"/>
    <polygon points="147.3 460.92 155.91 372.57 166.86 373.64 158.26 461.94 147.3 460.92" fill="#3b3839" fill-rule="evenodd" stroke-width="0"/>
    <polygon points="152.66 461.42 160.89 373.06 166.86 373.64 158.26 461.94 152.66 461.42" fill="#444342" fill-rule="evenodd" stroke-width="0"/>
    <polygon points="166.81 374.17 166.94 372.82 154.84 371.63 154.61 371.61 153.91 371.85 153.57 372.54 151.27 396.11 152.45 396.23 153.61 396.08 154.14 390.63 153.15 389.03 154.6 374.01 154.95 373.31 155.64 373.07 166.81 374.17" fill="#b3b3b3" fill-rule="evenodd" stroke-width="0"/>
    <rect x="105.31" y="411.58" width="79.9" height="5.19" transform="translate(-280.4 521.16) rotate(-84.78)" fill="#51bac5" stroke-width="0"/>
    <rect x="106.61" y="412.99" width="79.9" height="2.59" transform="translate(-279.36 522.51) rotate(-84.78)" fill="#5bc0cf" stroke-width="0"/>
    <path d="m151.49,379.13l.52.05-.13,1.43-.43-.04h0l-1.92-.18-3.77-.34-1.58,17.42-.46-.04c-.18-.18-.19-.09-.11-3.52.08-3.44.37-14.35.64-15.81,1.52-8.14,3.27-14.35,4.86-23.62.09-.62,3.12-.43,3.11.28l-.72,24.37Z" fill="#ed835c" fill-rule="evenodd" stroke-width="0"/>
    <rect x="126.47" y="410.14" width="145.81" height="77.18" fill="#0d9488" stroke-width="0"/>
    <polygon points="215.94 487.33 202.26 487.32 126.47 487.32 126.47 456.05 143.35 428.43 192.63 440.19 211.45 410.44 224.37 471.9 222.34 478.81 215.94 487.33" fill="#0f766e" stroke-width="0"/>
    <polygon points="235.7 473.22 254.67 478.81 248.42 487.32 272.28 487.32 272.28 410.14 235.7 473.22" fill="#fff" fill-rule="evenodd" opacity=".1" stroke-width="0"/>
    <path d="m222.34,473.22h32.33c.71,0,1.29.58,1.29,1.29v3.02c0,.71-.58,1.29-1.29,1.29h-32.33c-.71,0-1.29-.58-1.29-1.29v-3.02c0-.71.58-1.29,1.29-1.29h0Z" fill="#0d9488" fill-rule="evenodd" stroke-width="0"/>
    <path d="m255.6,478.41c-.24.25-.57.4-.93.4h-32.33c-.39,0-.73-.17-.97-.44-.2-.23,34.23.04,34.23.04Z" fill="#0f766e" fill-rule="evenodd" stroke-width="0"/>
    <g clip-path="url(#clippath)">
      <rect x="213.68" y="382.6" width="47.35" height="94.63" fill="#e2e8f0" stroke-width="0"/>
      <rect x="213.68" y="382.47" width="47.35" height="9.47" fill="#14b8a6" stroke-width="0"/>
      <rect x="216.05" y="384.36" width="16.57" height="5.68" fill="#fff" opacity=".79" stroke-width="0"/>
      <g opacity=".79">
        <rect x="253.93" y="385.31" width="4.73" height=".47" fill="#fff" stroke-width="0"/>
        <rect x="253.93" y="386.97" width="4.73" height=".47" fill="#fff" stroke-width="0"/>
        <rect x="253.93" y="388.62" width="4.73" height=".47" fill="#fff" stroke-width="0"/>
      </g>
      <rect x="213.68" y="370.02" width="47.35" height="12.45" fill="#e2e8f0" stroke-width="0"/>
      <rect x="216.05" y="377.73" width="42.61" height="3.7" rx=".72" ry=".72" fill="#fff" stroke-width="0"/>
      <polygon points="258.66 404.53 216.05 404.53 216.05 395.92 258.66 395.92 258.66 404.53 258.66 404.53" fill="#64748b" stroke-width="0"/>
      <polygon points="257.64 415.53 217.07 415.53 217.07 406.92 257.64 406.92 257.64 415.53 257.64 415.53" fill="#64748b" stroke-width="0"/>
      <polygon points="258.66 488.44 216.05 488.44 216.05 420.04 258.66 420.04 258.66 488.44 258.66 488.44" fill="#fbfffa" stroke-width="0"/>
      <polygon points="231.08 482.49 218.58 482.49 218.58 469.99 231.08 469.99 231.08 482.49 231.08 482.49" fill="#64748b" stroke-width="0"/>
      <polygon points="256.24 475.14 234.53 475.14 234.53 469.99 256.24 469.99 256.24 475.14 256.24 475.14" fill="#cbd5e1" stroke-width="0"/>
      <polygon points="243.83 482.49 234.53 482.49 234.53 477.34 243.83 477.34 243.83 482.49 243.83 482.49" fill="#cbd5e1" stroke-width="0"/>
      <g>
        <path d="m218.58,425.93h37.82v38.23h-37.82v-38.23Z" fill="#255cc0" stroke-width="0"/>
        <path d="m240.85,446.67l-7.21,8.15-3.36-3.8-11.62,13.14h37.66l-15.47-17.49Z" fill="#fff" isolation="isolate" opacity=".55" stroke-width="0"/>
        <circle cx="224.93" cy="432.78" r="3.02" fill="#fff" isolation="isolate" opacity=".55" stroke-width="0"/>
      </g>
    </g>
    <path d="m253.58,368.42c5.01,0,9.08,4.03,9.08,9v86.43c0,4.97-4.06,9-9.08,9h-32.45c-5.01,0-9.08-4.03-9.08-9v-86.43c0-4.97,4.06-9,9.08-9h32.45m0-.4h-32.45c-5.23,0-9.48,4.22-9.48,9.41v86.43c0,5.19,4.25,9.41,9.48,9.41h32.45c5.23,0,9.48-4.22,9.48-9.41v-86.43c0-5.19-4.25-9.41-9.48-9.41h0Z" fill="#94a3b8" stroke-width="0"/>
    <path d="m253.58,368.41h-32.46c-5.01,0-9.08,4.03-9.08,9v86.43c0,4.97,4.06,9,9.08,9h32.46c5.01,0,9.08-4.03,9.08-9v-86.43c0-4.97-4.06-9-9.08-9Zm7.45,95.44c0,4.07-3.34,7.38-7.45,7.38h-32.46c-4.11,0-7.45-3.31-7.45-7.38v-86.43c0-4.07,3.34-7.38,7.45-7.38h32.46c4.11,0,7.45,3.31,7.45,7.38v86.43Z" fill="#020617" stroke-width="0"/>
    <path d="m211.43,387.23h.21v5.62h-.21c-.1,0-.19-.08-.19-.19v-5.25c0-.1.08-.19.19-.19Z" fill="#64748b" stroke-width="0"/>
    <path d="m211.45,395.6h.2v8.84h-.2c-.11,0-.21-.09-.21-.21v-8.43c0-.11.09-.21.21-.21Z" fill="#64748b" stroke-width="0"/>
    <path d="m211.45,406.02h.2v8.84h-.2c-.11,0-.21-.09-.21-.21v-8.43c0-.11.09-.21.21-.21Z" fill="#64748b" stroke-width="0"/>
    <rect x="229.48" y="371.16" width="15.36" height="5.02" rx="2.51" ry="2.51" fill="#020617" stroke-width="0"/>
    <path d="m242.26,373.06c.33,0,.6.27.6.6s-.27.6-.6.6-.6-.27-.6-.6.27-.6.6-.6m0-1c-.89,0-1.61.72-1.61,1.61s.72,1.61,1.61,1.61,1.61-.72,1.61-1.61-.72-1.61-1.61-1.61h0Z" fill="#1e293b" stroke-width="0"/>
    <path d="m253.58,368.41h-32.46c-5.01,0-9.08,4.03-9.08,9v86.43c0,4.97,4.06,9,9.08,9h32.46c5.01,0,9.08-4.03,9.08-9v-86.43c0-4.97-4.06-9-9.08-9Zm7.45,95.44c0,4.07-3.34,7.38-7.45,7.38h-32.46c-4.11,0-7.45-3.31-7.45-7.38v-86.43c0-4.07,3.34-7.38,7.45-7.38h32.46c4.11,0,7.45,3.31,7.45,7.38v86.43Z" fill="#020617" stroke-width="0"/>
    <path d="m160.98,424.08h0c-20.82-5.88-26.72,22.43-10.92,31.96h8.02c-8.53-6.4-9.02-27.1,2.9-31.96" fill="#639a2e" stroke-width="0"/>
    <path d="m161.01,424.71c-.07,0-.14-.01-.2-.03.08.1.03.05,0,0h0s0,0,0,0h-.01s-.02,0-.02,0h-.05s-.09-.03-.09-.03l-.19-.04-.37-.07-.74-.15c-.49-.12-1-.12-1.49-.19-.25-.02-.5-.06-.74-.07h-.74s-.74-.02-.74-.02c-.25,0-.49.04-.74.06-1.96.15-3.86.7-5.51,1.67-3.35,1.92-5.53,5.42-6.53,9.17-1.02,3.78-.83,7.9.46,11.63,1.29,3.73,3.79,7.05,7.15,9.24h0c.07.05.12.1.16.16h-2.49c-1.24-.9-2.38-1.93-3.38-3.11-1.4-1.67-2.51-3.58-3.3-5.61-1.58-4.07-1.86-8.61-.82-12.89.53-2.13,1.41-4.21,2.74-6.02,1.32-1.8,3.05-3.33,5.03-4.36,1.99-1.03,4.21-1.55,6.4-1.59.27,0,.55-.02.82-.01l.81.06.81.07c.27.03.53.09.8.13.53.11,1.07.17,1.58.33l.77.22.39.11.19.05.1.03h.05s.02.02.02.02h.01c.07.09.04.05,0,0-.06-.08-.12-.16.45.57.01.34-.25.63-.59.64" fill="#75aa3d" stroke-width="0"/>
    <path d="m149.04,454.87h1.75c-.44-.43-.87-.87-1.27-1.34-1.4-1.67-2.51-3.58-3.3-5.61-1.58-4.07-1.86-8.61-.82-12.89.53-2.13,1.41-4.21,2.74-6.02,1.32-1.8,3.05-3.33,5.03-4.36.26-.13.52-.26.79-.38-1.63.23-3.21.75-4.6,1.57-3.35,1.92-5.53,5.42-6.53,9.17-1.02,3.78-.83,7.9.46,11.63,1.1,3.19,3.09,6.08,5.75,8.22" fill="#467f1b" stroke-width="0"/>
    <path d="m148.11,456.05c-.51-.37-.99-.76-1.47-1.18h2.39c-2.65-2.14-4.65-5.03-5.75-8.22-1.29-3.73-1.48-7.85-.46-11.63,1-3.76,3.18-7.25,6.53-9.17,1.4-.82,2.97-1.34,4.6-1.57,1-.44,2.05-.76,3.11-.96-.22-.25-.4-.51-.53-.77h-.12s-.81-.07-.81-.07c-.06,0-.12,0-.18,0-.21,0-.42.01-.64.01-2.19.03-4.41.55-6.4,1.59-1.99,1.04-3.72,2.56-5.03,4.36-1.32,1.81-2.2,3.89-2.74,6.02-.41,1.69-.61,3.41-.61,5.14,0,2.65.48,5.28,1.43,7.75.79,2.03,1.9,3.94,3.3,5.61,1,1.17,2.14,2.21,3.38,3.11" fill="#548c25" stroke-width="0"/>
    <path d="m176.59,424.08h0c20.82-5.88,26.72,22.43,10.92,31.96h-8.02c8.53-6.4,9.02-27.1-2.9-31.96" fill="#639a2e" stroke-width="0"/>
    <path d="m189.46,456.05h-2.49c.05-.06.1-.12.16-.16h0c3.36-2.19,5.86-5.51,7.15-9.24,1.29-3.73,1.48-7.85.46-11.63-1-3.76-3.18-7.25-6.53-9.17-1.65-.97-3.55-1.52-5.51-1.67-.24-.02-.49-.05-.74-.06h-.74s-.74.02-.74.02c-.25,0-.5.05-.74.07-.5.07-1,.07-1.49.19l-.74.15-.37.07-.19.04-.09.02h-.05s-.02.01-.02.01h-.01s0,0,0,0h0s-.08.1,0,0c-.06.02-.13.04-.2.03-.34-.01-.61-.3-.59-.64.58-.74.52-.65.45-.57-.03.04-.07.09,0,0h.01s.02-.01.02-.01h.05s.1-.04.1-.04l.19-.05.39-.11.77-.22c.51-.17,1.05-.22,1.58-.33.27-.04.53-.1.8-.13l.81-.07.81-.06c.27-.01.55,0,.82.01,2.19.03,4.41.55,6.4,1.59,1.99,1.04,3.72,2.56,5.03,4.36,1.32,1.81,2.2,3.89,2.74,6.02,1.04,4.27.75,8.82-.82,12.89-.79,2.03-1.9,3.94-3.3,5.61-.99,1.17-2.14,2.21-3.38,3.11" fill="#75aa3d" stroke-width="0"/>
    <path d="m186,454.87h2.53c2.65-2.14,4.65-5.03,5.75-8.22,1.29-3.73,1.48-7.85.46-11.63-1-3.76-3.18-7.25-6.53-9.17-.94-.56-1.97-.97-3.04-1.26,1.6,1,3.01,2.32,4.12,3.84,1.32,1.81,2.2,3.89,2.74,6.02,1.04,4.27.75,8.82-.82,12.89-.79,2.03-1.9,3.94-3.3,5.61-.58.69-1.22,1.33-1.9,1.93" fill="#76ab3b" stroke-width="0"/>
    <path d="m189.46,456.05c1.24-.9,2.38-1.93,3.38-3.11,1.4-1.67,2.51-3.58,3.3-5.61.95-2.46,1.43-5.1,1.43-7.75,0-1.72-.2-3.45-.61-5.14-.53-2.13-1.42-4.21-2.74-6.02-1.32-1.8-3.05-3.33-5.03-4.36-1.99-1.03-4.21-1.55-6.4-1.59-.21,0-.43-.01-.64-.01-.06,0-.12,0-.18,0l-.81.06h-.12c-.05.11-.11.21-.17.31,1.17.26,2.32.67,3.39,1.23.31.16.62.34.92.52,1.07.28,2.1.7,3.04,1.26,3.35,1.92,5.53,5.42,6.53,9.17,1.02,3.78.83,7.9-.46,11.63-1.1,3.19-3.09,6.08-5.75,8.22h2.39c-.47.41-.96.81-1.47,1.18" fill="#85b949" stroke-width="0"/>
    <path d="m168.72,424.15h0s.02,0,.03,0c0,0-.02,0-.03,0-1.19-15.93,12.01-10.02,4.3,0-1.32-.16-2.75-.17-4.3.01" fill="#ffc612" stroke-width="0"/>
    <path d="m175.29,419.5c4.61-4.37,9,2.03,3.71,5-.79.13-1.61.31-2.46.55h0c-.95-.39-1.99-.67-3.1-.84l-.23-.35c1.16-1.58,1.81-3.06,2.07-4.35" fill="#fdda30" stroke-width="0"/>
    <path d="m164.57,424.17c-7.76-10.03,5.47-15.96,4.28-.04-1.54-.16-2.97-.14-4.28.04" fill="#fdda30" stroke-width="0"/>
    <path d="m161.22,425.05s.01,0,.02-.01h0c-.95-.27-1.87-.47-2.76-.6-6.11-3.55,1.18-11.76,6.33-1.31l-.71,1.11c-1.03.18-1.99.45-2.88.81" fill="#ffc612" stroke-width="0"/>
    <path d="m168.93,422.56c.92-.13,1.85-.21,2.8-.21.79,0,1.58.05,2.37.17.34-.59.61-1.15.81-1.7-1.19-.31-2.48-.47-3.88-.47-.69,0-1.41.04-2.16.12.05.64.08,1.33.07,2.09" fill="#ffb009" stroke-width="0"/>
    <path d="m179.2,424.39c1.77-1.07,2.36-2.53,2.19-3.79-1.5.05-3.1.3-4.8.78h0c-.53-.22-1.1-.4-1.68-.56-.2.54-.47,1.11-.81,1.7.12.02.23.04.35.06.05,0,.1.02.16.03h0c1.61.3,3.18.9,4.6,1.77" fill="#fdc119" stroke-width="0"/>
    <path d="m168.65,422.61c-.89-.13-1.79-.2-2.69-.2-.5,0-.99.02-1.49.06-.38-.69-.76-1.29-1.15-1.8,1.01-.21,2.08-.32,3.23-.32.72,0,1.46.04,2.23.13.03,0,.05,0,.08,0,.05.64.08,1.33.07,2.09-.08.01-.17.03-.25.04,0,0-.02,0-.03,0m.1-2.11h0" fill="#fdc119" stroke-width="0"/>
    <path d="m158.44,424.42h0s0,0,0,0m-.01,0s0,0,0,0t0,0m-.01,0s0,0,0,0c0,0,0,0,0,0m-.01,0s0,0,0,0t0,0m-.01,0s0,0,0,0c0,0,0,0,0,0" fill="#638918" stroke-width="0"/>
    <path d="m158.44,424.43c1.38-.84,2.91-1.43,4.47-1.74.52-.1,1.04-.17,1.55-.21-.38-.69-.76-1.29-1.15-1.8-.83.17-1.62.42-2.36.72,0,0,.01,0,.02,0h0c-1.7-.48-3.3-.73-4.8-.78-.17,1.26.43,2.73,2.21,3.79,0,0,0,0,0,0,0,0,0,0,0,0t0,0s0,0,0,0c0,0,0,0,0,0,0,0,0,0,0,0t0,0s0,0,0,0h0s0,0,0,0" fill="#ffb009" stroke-width="0"/>
    <path d="m179.49,456.05h-11.19c.98-10.91-.94-21.98.44-32.86,19.68-2.32,20.84,25.28,10.74,32.86" fill="#639a2e" stroke-width="0"/>
    <path d="m168.79,423.19s-.03,0-.04,0c-1.38,10.88.53,21.95-.44,32.86h-10.22c-10.09-7.57-8.93-35.14,10.7-32.86" fill="#639a2e" stroke-width="0"/>
    <path d="m183.76,452.49c-.77,1.3-1.7,2.53-2.83,3.56h-1.8,0s.01-.01.01-.01c1.37-1.17,2.45-2.66,3.26-4.29.82-1.62,1.39-3.37,1.76-5.17.72-3.58.72-7.33-.12-10.85-.42-1.76-1.03-3.45-1.87-5.01-.83-1.56-1.91-2.98-3.26-4.09-1.34-1.13-2.95-1.93-4.67-2.38-1.73-.45-3.57-.57-5.41-.47h-.02c-.3.02-.57-.2-.62-.5-.05-.33.17-.63.5-.68,1.93-.3,3.94-.36,5.92.01,1.98.37,3.91,1.2,5.55,2.42,1.64,1.23,3,2.82,4.02,4.57,1.01,1.76,1.68,3.68,2.09,5.63.78,3.91.68,7.94-.3,11.77-.5,1.91-1.2,3.77-2.2,5.49" fill="#75aa3d" stroke-width="0"/>
    <path d="m177.66,454.87h2.67c.83-.93,1.52-1.99,2.07-3.12.82-1.62,1.39-3.37,1.76-5.17.72-3.58.72-7.33-.12-10.85-.42-1.76-1.03-3.45-1.87-5.01-.83-1.56-1.91-2.98-3.26-4.09-1.18-.99-2.55-1.72-4.04-2.19.3.19.59.38.87.6,1.64,1.23,3,2.82,4.02,4.57,1.01,1.76,1.68,3.68,2.09,5.63.78,3.91.68,7.94-.3,11.77-.5,1.91-1.2,3.77-2.2,5.49-.49.83-1.05,1.64-1.69,2.38" fill="#76ab3b" stroke-width="0"/>
    <path d="m174.6,422.61c-.05,0-.1-.02-.16-.03.05,0,.1.02.16.03" fill="#fdcc27" stroke-width="0"/>
    <path d="m180.33,454.87h1.75c.64-.74,1.19-1.55,1.69-2.38,1-1.72,1.7-3.58,2.2-5.49.54-2.14.82-4.34.81-6.54,0-1.74-.17-3.49-.52-5.22-.41-1.95-1.08-3.87-2.09-5.63-1.02-1.76-2.37-3.34-4.02-4.57-1.65-1.22-3.57-2.05-5.55-2.42h0c-.05,0-.1-.02-.16-.03-.9-.16-1.81-.23-2.71-.23-.76,0-1.53.05-2.28.14.24.03.49.07.73.12,1.64.3,3.24.92,4.68,1.82,1.49.47,2.87,1.21,4.04,2.19,1.35,1.11,2.43,2.53,3.26,4.09.84,1.56,1.45,3.25,1.87,5.01.84,3.51.84,7.27.12,10.85-.36,1.79-.94,3.54-1.76,5.17-.56,1.13-1.25,2.19-2.07,3.12" fill="#85b949" stroke-width="0"/>
    <path d="m168.69,423.76h-.02c-1.84-.11-3.69-.02-5.42.44-1.74.44-3.35,1.25-4.7,2.38-2.72,2.26-4.35,5.65-5.04,9.18-.36,1.77-.52,3.58-.53,5.39-.01,1.82.14,3.64.51,5.42.36,1.78.93,3.53,1.74,5.14.81,1.61,1.86,3.11,3.22,4.28h.01s.02.04.03.05h-1.95c-1.12-1.01-2.05-2.23-2.8-3.51-1.01-1.72-1.72-3.58-2.22-5.49-.98-3.82-1.16-7.88-.24-11.77.46-1.94,1.16-3.83,2.17-5.58,1-1.74,2.32-3.35,3.96-4.56,1.63-1.22,3.54-2.06,5.5-2.44,1.97-.37,3.97-.35,5.9-.06.29.04.5.3.48.6-.02.31-.29.55-.6.53" fill="#75aa3d" stroke-width="0"/>
    <path d="m157.32,454.87h2.41c-.63-.73-1.18-1.52-1.66-2.34-1.01-1.72-1.72-3.58-2.22-5.49-.98-3.82-1.16-7.88-.24-11.77.46-1.94,1.16-3.83,2.17-5.58,1-1.74,2.32-3.35,3.96-4.56.42-.32.86-.61,1.31-.87-1.65.45-3.19,1.24-4.48,2.32-2.72,2.26-4.35,5.65-5.04,9.18-.36,1.77-.52,3.58-.53,5.39-.01,1.82.14,3.64.51,5.42.36,1.78.93,3.53,1.74,5.14.57,1.13,1.26,2.2,2.08,3.15" fill="#467f1b" stroke-width="0"/>
    <path d="m155.41,454.87h1.92c-.83-.94-1.52-2.02-2.08-3.15-.81-1.62-1.38-3.36-1.74-5.14-.37-1.78-.53-3.61-.51-5.42.01-1.82.17-3.63.53-5.39.69-3.52,2.33-6.91,5.04-9.18,1.29-1.08,2.83-1.87,4.48-2.32,1.3-.76,2.73-1.29,4.19-1.57.31-.06.62-.1.93-.15-.73-.09-1.48-.13-2.22-.13-1.01,0-2.03.09-3.04.28-1.97.38-3.87,1.21-5.5,2.44-1.64,1.21-2.96,2.82-3.96,4.56-1.01,1.75-1.71,3.64-2.17,5.58-.41,1.73-.6,3.5-.6,5.26,0,2.2.3,4.39.84,6.51.5,1.91,1.22,3.78,2.22,5.49.48.82,1.03,1.61,1.66,2.34" fill="#548c25" stroke-width="0"/>
    <path d="m168.98,456.05h-1.29c.04-2.63,0-5.25-.12-7.88-.06-1.38-.14-2.76-.21-4.14-.07-1.38-.11-2.77-.14-4.16-.04-2.78-.09-5.58.02-8.38.1-2.8.32-5.61.8-8.39.06-.35.32-.34.68-.31.39.03.75.09.72.48-.21,2.74-.27,5.48-.23,8.23.05,2.75.15,5.51.3,8.28.07,1.39.12,2.78.13,4.17,0,1.39-.02,2.79-.04,4.19-.08,2.63-.24,5.27-.62,7.89" fill="#75aa3d" stroke-width="0"/>
    <path d="m169.14,454.87h1.82c2.29-7.91-1.52-22.98-1.55-31.05-.18,2.56-.23,5.12-.19,7.69h0c.05,2.75.15,5.51.3,8.28.07,1.39.12,2.78.13,4.17,0,.15,0,.3,0,.46,0,1.24-.02,2.49-.05,3.73-.07,2.24-.19,4.48-.46,6.71" fill="#80b542" stroke-width="0"/>
    <path d="m166.65,454.87h1.05c0-.28,0-.57,0-.85,0-1.95-.04-3.89-.13-5.85-.06-1.38-.14-2.76-.21-4.14-.07-1.38-.11-2.77-.14-4.16-.02-1.56-.05-3.13-.05-4.71,0-1.22.02-2.45.06-3.67h0s0-.04,0-.06c.09-2.56.29-5.13.69-7.67-2.06,9.19-2.49,24.57-1.28,31.1" fill="#467f1b" stroke-width="0"/>
    <path d="m167.7,454.87c0-.28,0-.57,0-.85,0,.28,0,.57,0,.85h0m-.52-19.7c0-1.22.02-2.45.06-3.67h0c-.05,1.23-.06,2.45-.06,3.67m.07-3.74c.09-2.56.29-5.13.69-7.67,0,0,0,0,0,0h0c-.4,2.54-.61,5.11-.7,7.67" fill="#548c25" stroke-width="0"/>
    <path d="m133.1,456.05h71.36c1.17,0,2.07,1.68,1.95,3.6l-1.31,20.13c-.11,1.65-.95,2.9-1.95,2.9h-68.75c-1,0-1.84-1.25-1.95-2.9l-1.31-20.13c-.13-1.92.78-3.6,1.95-3.6" fill="#0d9488" stroke-width="0"/>
    <path d="m152.13,456.05h4.42c-.41-.37-.79-.76-1.14-1.18h-4.62c.43.41.88.81,1.35,1.18" fill="#518922" stroke-width="0"/>
    <path d="m150.6,456.05h1.53c-.46-.37-.91-.77-1.35-1.18h-1.75c.45.36.91.7,1.4,1.02h0c.07.05.12.1.16.16" fill="#397114" stroke-width="0"/>
    <path d="m148.11,456.05h2.49c-.05-.06-.1-.11-.16-.16h0c-.48-.32-.95-.66-1.4-1.02h-2.39c.47.41.96.81,1.47,1.18h0" fill="#457d1c" stroke-width="0"/>
    <path d="m180.94,456.05h3.59c.51-.37,1-.76,1.48-1.18h-3.93c-.36.42-.74.81-1.14,1.18" fill="#518922" stroke-width="0"/>
    <path d="m184.53,456.05h2.44c.05-.06.1-.12.16-.16h0c.48-.32.95-.66,1.4-1.02h-2.53c-.47.42-.97.81-1.48,1.18" fill="#61982c" stroke-width="0"/>
    <path d="m186.97,456.05h2.49c.51-.37.99-.76,1.47-1.18h-2.39c-.45.36-.91.7-1.4,1.02h0c-.07.05-.12.1-.16.16h0" fill="#6da537" stroke-width="0"/>
    <path d="m170.55,456.05h5.97c.4-.37.78-.76,1.14-1.18h-6.7c-.12.41-.26.81-.41,1.18" fill="#518922" stroke-width="0"/>
    <path d="m160.87,456.05h6.04c-.09-.35-.18-.75-.26-1.18h-6.93c.36.42.74.81,1.14,1.18" fill="#518922" stroke-width="0"/>
    <path d="m176.52,456.05h2.61s0,0,0,0h.01c.42-.37.82-.76,1.18-1.18h-2.67c-.36.42-.73.81-1.14,1.18" fill="#61982c" stroke-width="0"/>
    <path d="m179.13,456.05h1.8c.4-.37.78-.76,1.14-1.18h-1.75c-.37.42-.76.81-1.18,1.17h-.01s0,.01,0,.01" fill="#6da537" stroke-width="0"/>
    <path d="m158.5,456.05h2.37c-.41-.37-.79-.76-1.14-1.18h-2.41c.35.4.73.78,1.14,1.13h.01s.02.04.03.05" fill="#397114" stroke-width="0"/>
    <path d="m156.55,456.05h1.95s-.02-.03-.03-.04h-.01c-.41-.36-.78-.74-1.14-1.14h-1.92c.36.42.74.81,1.14,1.18h0" fill="#457d1c" stroke-width="0"/>
    <path d="m167.69,456.05h1.29c.06-.39.11-.78.16-1.18h-1.44c0,.39,0,.79-.01,1.18" fill="#60972e" stroke-width="0"/>
    <path d="m168.98,456.05h1.57c.15-.37.29-.77.41-1.18h-1.82c-.05.39-.1.79-.16,1.18" fill="#69a132" stroke-width="0"/>
    <path d="m166.92,456.05h.77c0-.39,0-.79.01-1.18h-1.05c.08.43.17.83.26,1.18" fill="#397114" stroke-width="0"/>
    <polyline points="148.11 456.05 150.07 456.05 150.6 456.05 152.13 456.05 156.55 456.05 158.08 456.05 158.5 456.05 160.87 456.05 166.92 456.05 167.69 456.05 168.3 456.05 168.98 456.05 170.55 456.05 176.52 456.05 179.13 456.05 179.49 456.05 180.94 456.05 184.53 456.05 186.97 456.05 187.5 456.05 189.46 456.05 189.46 456.05 148.11 456.05 148.11 456.05" fill="#835924" stroke-width="0"/>
    <path d="m199.3,479.59c.87,0,1.62-1.18,1.72-2.77l.86-14.26c.1-1.7-.59-3.23-1.54-3.41-.06-.01-.13-.02-.19-.02-.87,0-1.62,1.18-1.72,2.77l-.86,14.26c-.1,1.7.59,3.23,1.54,3.41.06.01.13.02.19.02" fill="#14b8a6" stroke-width="0"/>
    <path d="m134.41,482.68h2.76c-1,0-1.84-1.25-1.95-2.9l-1.31-20.13c-.12-1.92.78-3.6,1.95-3.6h-2.76c-1.09,0-1.96,1.47-1.96,3.24,0,.12,0,.24.01.36l1.31,20.13c.11,1.65.95,2.9,1.95,2.9" fill="#115e59" stroke-width="0"/>
    <polygon points="735.65 373.93 354.53 373.93 354.53 342.54 735.65 342.54 735.65 373.93 735.65 373.93" fill="#6c92d8" stroke-width="0"/>
    <polygon points="735.65 342.54 354.7 342.54 354.7 195.28 735.65 195.28 735.65 342.54 735.65 342.54" fill="#e2e8f0" stroke-width="0"/>
    <g>
      <polygon points="735.65 195.08 354.7 195.08 354.7 168.97 735.65 168.97 735.65 195.08 735.65 195.08" fill="#14b8a6" stroke-width="0"/>
      <polygon points="456.69 190.54 405.17 190.54 405.17 173.07 456.69 173.07 456.69 190.54 456.69 190.54" fill="#fff" opacity=".79" stroke-width="0"/>
      <polygon points="529.47 187.2 494.75 187.2 494.75 176.42 529.47 176.42 529.47 187.2 529.47 187.2" fill="#fff" opacity=".79" stroke-width="0"/>
      <polygon points="570.34 187.2 535.62 187.2 535.62 176.42 570.34 176.42 570.34 187.2 570.34 187.2" fill="#fff" opacity=".79" stroke-width="0"/>
      <polygon points="611.2 187.2 576.49 187.2 576.49 176.42 611.2 176.42 611.2 187.2 611.2 187.2" fill="#fff" opacity=".79" stroke-width="0"/>
      <polygon points="652.07 187.2 617.36 187.2 617.36 176.42 652.07 176.42 652.07 187.2 652.07 187.2" fill="#fff" opacity=".79" stroke-width="0"/>
      <polygon points="692.94 187.2 658.22 187.2 658.22 176.42 692.94 176.42 692.94 187.2 692.94 187.2" fill="#fff" opacity=".79" stroke-width="0"/>
    </g>
    <polygon points="606.33 215.06 487.82 215.06 487.82 204.32 606.33 204.32 606.33 215.06 606.33 215.06" fill="#64748b" stroke-width="0"/>
    <polygon points="435.43 358.38 395.29 358.38 395.29 350.43 435.43 350.43 435.43 358.38 435.43 358.38" fill="#abb8e0" stroke-width="0"/>
    <polygon points="440.81 371.06 395.29 371.06 395.29 363.11 440.81 363.11 440.81 371.06 440.81 371.06" fill="#ced6ed" stroke-width="0"/>
    <polygon points="506.51 358.38 473.69 358.38 473.69 350.43 506.51 350.43 506.51 358.38 506.51 358.38" fill="#abb8e0" stroke-width="0"/>
    <polygon points="522.46 371.06 473.69 371.06 473.69 363.11 522.46 363.11 522.46 371.06 522.46 371.06" fill="#ced6ed" stroke-width="0"/>
    <polygon points="605.18 358.38 552.09 358.38 552.09 350.43 605.18 350.43 605.18 358.38 605.18 358.38" fill="#abb8e0" stroke-width="0"/>
    <polygon points="612.53 371.06 552.09 371.06 552.09 363.11 612.53 363.11 612.53 371.06 612.53 371.06" fill="#ced6ed" stroke-width="0"/>
    <polygon points="682.57 370.95 629.48 370.95 629.48 350.43 682.57 350.43 682.57 370.95 682.57 370.95" fill="#abb8e0" stroke-width="0"/>
    <polygon points="464.19 330.36 395.77 330.36 395.77 224.81 464.19 224.81 464.19 330.36 464.19 330.36" fill="#fbfffa" stroke-width="0"/>
    <polygon points="420.21 321.17 400.93 321.17 400.93 301.88 420.21 301.88 420.21 321.17 420.21 321.17" fill="#64748b" stroke-width="0"/>
    <polygon points="459.03 292.34 400.93 292.34 400.93 233.99 459.03 233.99 459.03 292.34 459.03 292.34" fill="#657cc7" stroke-width="0"/>
    <polygon points="459.03 309.83 425.54 309.83 425.54 301.88 459.03 301.88 459.03 309.83 459.03 309.83" fill="#cbd5e1" stroke-width="0"/>
    <polygon points="439.89 321.18 425.54 321.18 425.54 313.23 439.89 313.23 439.89 321.18 439.89 321.18" fill="#cbd5e1" stroke-width="0"/>
    <polygon points="542.22 329.86 473.81 329.86 473.81 284.7 542.22 284.7 542.22 329.86 542.22 329.86" fill="#ffaf1c" stroke-width="0"/>
    <polygon points="524.73 311.26 491.3 311.26 491.3 303.31 524.73 303.31 524.73 311.26 524.73 311.26" fill="#fff" opacity=".7" stroke-width="0"/>
    <path d="m480.43,316.59h55.17v-18.63h-55.17v18.63h0Zm55.64.47h-56.1v-19.56h56.1v19.56h0Z" fill="#fff" opacity=".7" stroke-width="0"/>
    <polygon points="542.11 274.79 473.69 274.79 473.69 224.81 542.11 224.81 542.11 274.79 542.11 274.79" fill="#fbfffa" stroke-width="0"/>
    <polygon points="536.11 244.65 479.84 244.65 479.84 233.91 536.11 233.91 536.11 244.65 536.11 244.65" fill="#64748b" stroke-width="0"/>
    <polygon points="536.16 258.16 499.57 258.16 499.57 250.21 536.16 250.21 536.16 258.16 536.16 258.16" fill="#cbd5e1" stroke-width="0"/>
    <polygon points="619.98 224.81 551.56 224.81 551.56 330.36 619.98 330.36 619.98 224.81 619.98 224.81" fill="#fbfffa" stroke-width="0"/>
    <polygon points="576 234 556.71 234 556.71 253.28 576 253.28 576 234 576 234" fill="#64748b" stroke-width="0"/>
    <polygon points="614.82 262.82 556.71 262.82 556.71 321.18 614.82 321.18 614.82 262.82 614.82 262.82" fill="#657cc7" stroke-width="0"/>
    <polygon points="614.82 245.33 581.33 245.33 581.33 253.28 614.82 253.28 614.82 245.33 614.82 245.33" fill="#cbd5e1" stroke-width="0"/>
    <polygon points="595.67 233.99 581.33 233.99 581.33 241.94 595.67 241.94 595.67 233.99 595.67 233.99" fill="#cbd5e1" stroke-width="0"/>
    <polygon points="698.01 224.81 629.59 224.81 629.59 269.97 698.01 269.97 698.01 224.81 698.01 224.81" fill="#ff7c1c" stroke-width="0"/>
    <polygon points="680.51 243.43 647.09 243.43 647.09 251.38 680.51 251.38 680.51 243.43 680.51 243.43" fill="#fff" opacity=".7" stroke-width="0"/>
    <path d="m636.21,256.7h55.17v-18.63h-55.17v18.63h0Zm55.64.47h-56.1v-19.56h56.1v19.56h0Z" fill="#fff" opacity=".7" stroke-width="0"/>
    <polygon points="697.9 279.88 629.48 279.88 629.48 329.87 697.9 329.87 697.9 279.88 697.9 279.88" fill="#fbfffa" stroke-width="0"/>
    <polygon points="691.9 310.03 635.62 310.03 635.62 320.77 691.9 320.77 691.9 310.03 691.9 310.03" fill="#64748b" stroke-width="0"/>
    <polygon points="691.95 296.52 655.36 296.52 655.36 304.47 691.95 304.47 691.95 296.52 691.95 296.52" fill="#cbd5e1" stroke-width="0"/>
    <g>
      <rect x="354.82" y="158.62" width="380.83" height="10.35" fill="#e5e7eb" stroke-width="0"/>
      <rect x="487.98" y="161.31" width="115.84" height="5.37" rx=".89" ry=".89" fill="#fff" stroke-width="0"/>
      <g>
        <circle cx="360" cy="163.79" r="1.19" fill="#f77171" stroke-width="0"/>
        <circle cx="363.88" cy="163.79" r="1.19" fill="#fabe24" stroke-width="0"/>
        <circle cx="367.76" cy="163.79" r="1.19" fill="#a2e535" stroke-width="0"/>
      </g>
    </g>
    <g>
      <path d="m400.93,233.91h58.35v58.98h-58.35v-58.98Z" fill="#255cc0" stroke-width="0"/>
      <path d="m435.29,265.91l-11.12,12.57-5.18-5.86-17.93,20.27h58.1l-23.87-26.98Z" fill="#fff" isolation="isolate" opacity=".55" stroke-width="0"/>
      <circle cx="410.73" cy="244.47" r="4.65" fill="#fff" isolation="isolate" opacity=".55" stroke-width="0"/>
    </g>
    <path d="m556.71,262.82h58.1v58.55h-58.1v-58.55Z" fill="#14b8a6" stroke-width="0"/>
    <path d="m590.95,294.39l-11.12,12.57-5.18-5.86-17.93,20.27h58.1l-23.87-26.98Z" fill="#fff" isolation="isolate" opacity=".55" stroke-width="0"/>
    <circle cx="566.52" cy="272.75" r="4.65" fill="#fff" isolation="isolate" opacity=".55" stroke-width="0"/>
    <path d="m510.16,487.21h-10.45c-.67,0-1.27-.09-1.7-.24s-.71-.35-.71-.57h15.26c0,.21-.23.39-.61.54-.44.16-1.08.27-1.79.27Z" fill="#030712" stroke-width="0"/>
    <path d="m590.5,487.21h-10.45c-1.33,0-2.41-.36-2.41-.8h15.26c0,.44-1.08.8-2.41.8Z" fill="#030712" stroke-width="0"/>
    <path d="m543.88,155.7c.38.3.85.45,1.32.45.18,0,.35-.02.53-.07.47-.12.89-.39,1.17-.76.3-.38.46-.85.46-1.33,0-.48-.16-.95-.46-1.33-.29-.38-.71-.65-1.17-.77-.66-.17-1.36-.02-1.88.4-.52.41-.82,1.05-.82,1.71,0,.66.32,1.3.84,1.69Zm.94-2.2c.11-.09.25-.13.39-.13.05,0,.1,0,.15.02.13.03.26.11.34.22.08.11.13.25.13.38h0c0,.14-.05.28-.13.39-.08.11-.21.19-.34.22-.18.05-.38,0-.53-.11-.15-.11-.24-.3-.24-.49,0-.18.09-.37.24-.49Z" fill="#18181b" stroke-width="0"/>
    <path d="m496.09,481.58h98.01v4.03c0,.43-.35.79-.79.79h-96.44c-.43,0-.79-.35-.79-.79v-4.03h0Z" fill="#6b7280" stroke-width="0"/>
    <rect x="496.09" y="424.54" width="98.01" height="57.04" fill="#64748b" stroke-width="0"/>
    <rect x="496.09" y="424.54" width="98.01" height="1.61" fill="#020617" stroke-width="0"/>
    <path d="m740.5,424.54h-390.8c-3.01,0-5.45-2.44-5.45-5.45v-34.72h401.7v34.72c0,3.01-2.44,5.45-5.45,5.45Z" fill="#94a3b8" stroke-width="0"/>
    <path d="m735.51,158.62v215.31h-380.81v-215.31h380.81m3.03-10.44h-386.86c-4.1,0-7.42,3.32-7.42,7.42v228.78h401.7v-228.78c0-4.1-3.32-7.42-7.42-7.42h0Z" fill="#020617" stroke-width="0"/>
    <path d="m545.29,152.76c.34,0,.62.27.62.6s-.28.6-.62.6-.62-.27-.62-.6.28-.6.62-.6m0-1c-.89,0-1.62.72-1.62,1.61s.72,1.61,1.62,1.61,1.62-.72,1.62-1.61-.72-1.61-1.62-1.61h0Z" fill="#1e293b" stroke-width="0"/>
    <path d="m380.77,424.54h359.73c3.01,0,5.45-2.44,5.45-5.45v-34.72h0v-168.27l-365.18,208.44Z" fill="#fff" opacity=".1" stroke-width="0"/>
    <path d="m455.48,482.98h-7.85v-2.82c0-.37.51-.68,1.15-.68h5.54c.64,0,1.15.31,1.15.68v2.82Z" fill="#94a3b8" fill-rule="evenodd" stroke-width="0"/>
    <path d="m464.08,482.98h-7.85v-2.82c0-.37.51-.68,1.15-.68h5.54c.64,0,1.15.31,1.15.68v2.82Z" fill="#94a3b8" fill-rule="evenodd" stroke-width="0"/>
    <path d="m472.69,482.98h-7.85v-2.82c0-.37.52-.68,1.15-.68h5.54c.64,0,1.15.31,1.15.68v2.82Z" fill="#94a3b8" fill-rule="evenodd" stroke-width="0"/>
    <path d="m547.4,482.98h-7.85v-2.82c0-.37.51-.68,1.15-.68h5.54c.64,0,1.15.31,1.15.68v2.82Z" fill="#94a3b8" fill-rule="evenodd" stroke-width="0"/>
    <path d="m556,482.98h-7.85v-2.82c0-.37.52-.68,1.15-.68h5.54c.64,0,1.15.31,1.15.68v2.82Z" fill="#94a3b8" fill-rule="evenodd" stroke-width="0"/>
    <path d="m564.61,482.98h-7.85v-2.82c0-.37.52-.68,1.15-.68h5.54c.64,0,1.15.31,1.15.68v2.82Z" fill="#94a3b8" fill-rule="evenodd" stroke-width="0"/>
    <path d="m573.35,482.98h-7.85v-2.82c0-.37.52-.68,1.15-.68h5.54c.64,0,1.15.31,1.15.68v2.82Z" fill="#94a3b8" fill-rule="evenodd" stroke-width="0"/>
    <path d="m582.09,482.98h-7.85v-2.82c0-.37.52-.68,1.15-.68h5.55c.64,0,1.15.31,1.15.68v2.82Z" fill="#94a3b8" fill-rule="evenodd" stroke-width="0"/>
    <path d="m590.84,482.98h-7.85v-2.82c0-.37.52-.68,1.15-.68h5.55c.63,0,1.15.31,1.15.68v2.82Z" fill="#94a3b8" fill-rule="evenodd" stroke-width="0"/>
    <path d="m599.58,482.98h-7.85v-2.82c0-.37.52-.68,1.15-.68h5.54c.64,0,1.15.31,1.15.68v2.82Z" fill="#94a3b8" fill-rule="evenodd" stroke-width="0"/>
    <path d="m613.32,482.98h-7.85v-2.82c0-.37.52-.68,1.15-.68h5.55c.63,0,1.15.31,1.15.68v2.82Z" fill="#94a3b8" fill-rule="evenodd" stroke-width="0"/>
    <path d="m621.68,482.98h-7.84v-2.82c0-.37.51-.68,1.15-.68h5.55c.64,0,1.14.31,1.14.68v2.82Z" fill="#94a3b8" fill-rule="evenodd" stroke-width="0"/>
    <path d="m630.05,482.98h-7.85v-2.82c0-.37.52-.68,1.16-.68h5.54c.64,0,1.15.31,1.15.68v2.82Z" fill="#94a3b8" fill-rule="evenodd" stroke-width="0"/>
    <path d="m638.41,482.98h-7.85v-2.82c0-.37.52-.68,1.15-.68h5.55c.64,0,1.15.31,1.15.68v2.82Z" fill="#94a3b8" fill-rule="evenodd" stroke-width="0"/>
    <path d="m538.47,482.92l-65.03.06v-2.82c0-.38.52-.68,1.15-.68l62.72-.06c.3,0,.6.08.81.2.22.13.34.3.34.48v2.82Z" fill="#94a3b8" fill-rule="evenodd" stroke-width="0"/>
    <path d="m644.03,485.26c0,1.16-1.26,2.11-2.81,2.11h-196.38c-1.56,0-2.81-.94-2.81-2.11v-1.92c0-1.17,1.26-2.11,2.81-2.11h196.38c1.55,0,2.81.94,2.81,2.11v1.92Z" fill="#cbd5e1" fill-rule="evenodd" stroke-width="0"/>
    <path d="m442.02,484.75v.51c0,1.16,1.26,2.11,2.81,2.11h196.38c1.55,0,2.81-.94,2.81-2.11v-.51h-202.01Z" fill="#94a3b8" fill-rule="evenodd" stroke-width="0"/>
    <path d="m715.25,485.33c-.41-4.91-9.9-8.85-21.55-8.85s-21.14,3.94-21.55,8.85h43.09Z" fill="#cbd5e1" stroke-width="0"/>
    <rect x="672.16" y="485.33" width="43" height="2.06" fill="#94a3b8" stroke-width="0"/>
    <rect x="776.12" y="310.45" width="246.71" height="159.35" fill="#1e293b" stroke-width="0"/>
    <rect x="776.12" y="319.14" width="47.99" height="150.65" fill="#475569" stroke-width="0"/>
    <rect x="776.12" y="310.45" width="246.71" height="8.7" fill="#0f172a" stroke-width="0"/>
    <g>
      <path d="m1011.19,314.79c0,.71-.57,1.28-1.27,1.28s-1.27-.57-1.27-1.28.57-1.28,1.27-1.28,1.27.57,1.27,1.28Z" fill="#ffc440" stroke-width="0"/>
      <path d="m1015.06,314.79c0,.71-.57,1.28-1.27,1.28s-1.27-.57-1.27-1.28.57-1.28,1.27-1.28,1.27.57,1.27,1.28Z" fill="#56c356" stroke-width="0"/>
      <path d="m1018.93,314.79c0,.71-.57,1.28-1.27,1.28s-1.27-.57-1.27-1.28.57-1.28,1.27-1.28,1.27.57,1.27,1.28Z" fill="#ff5168" stroke-width="0"/>
    </g>
    <rect x="824.11" y="319.14" width=".45" height="150.65" fill="#334155" stroke-width="0"/>
    <g>
      <g>
        <rect x="782.85" y="324.25" width="2.75" height="2.75" fill="#2dd4bf" stroke-width="0"/>
        <rect x="786.68" y="324.92" width="12.59" height="1.41" fill="#cbd5e1" stroke-width="0"/>
      </g>
      <g>
        <rect x="782.85" y="337.91" width="2.75" height="2.75" fill="#2dd4bf" stroke-width="0"/>
        <rect x="786.68" y="338.58" width="12.59" height="1.41" fill="#cbd5e1" stroke-width="0"/>
      </g>
      <g>
        <rect x="782.85" y="360.67" width="2.75" height="2.75" fill="#2dd4bf" stroke-width="0"/>
        <rect x="786.68" y="361.34" width="12.59" height="1.41" fill="#cbd5e1" stroke-width="0"/>
      </g>
      <g>
        <rect x="782.85" y="365.22" width="2.75" height="2.75" fill="#2dd4bf" stroke-width="0"/>
        <rect x="786.68" y="365.89" width="12.59" height="1.41" fill="#cbd5e1" stroke-width="0"/>
      </g>
      <g>
        <rect x="786.68" y="328.81" width="2.75" height="2.75" fill="#14b8a6" stroke-width="0"/>
        <rect x="790.53" y="329.48" width="12.59" height="1.41" fill="#cbd5e1" stroke-width="0"/>
      </g>
      <g>
        <rect x="786.68" y="333.36" width="2.75" height="2.75" fill="#14b8a6" stroke-width="0"/>
        <rect x="790.53" y="334.03" width="17.36" height="1.41" fill="#cbd5e1" stroke-width="0"/>
      </g>
      <g>
        <rect x="786.68" y="342.46" width="2.75" height="2.75" fill="#14b8a6" stroke-width="0"/>
        <rect x="790.52" y="343.13" width="21.12" height="1.41" fill="#cbd5e1" stroke-width="0"/>
      </g>
      <g>
        <rect x="786.68" y="347.01" width="2.75" height="2.75" fill="#14b8a6" stroke-width="0"/>
        <rect x="790.52" y="347.68" width="14.27" height="1.41" fill="#cbd5e1" stroke-width="0"/>
      </g>
      <g>
        <rect x="790.52" y="351.57" width="2.75" height="2.75" fill="#0d9488" stroke-width="0"/>
        <rect x="794.34" y="352.24" width="23.5" height="1.41" fill="#cbd5e1" stroke-width="0"/>
      </g>
      <g>
        <rect x="790.52" y="356.12" width="2.75" height="2.75" fill="#0d9488" stroke-width="0"/>
        <rect x="794.34" y="356.79" width="14.35" height="1.41" fill="#cbd5e1" stroke-width="0"/>
      </g>
      <g>
        <g>
          <rect x="782.85" y="369.59" width="2.75" height="2.75" fill="#2dd4bf" stroke-width="0"/>
          <rect x="786.68" y="370.26" width="12.59" height="1.41" fill="#cbd5e1" stroke-width="0"/>
        </g>
        <g>
          <rect x="782.85" y="383.25" width="2.75" height="2.75" fill="#2dd4bf" stroke-width="0"/>
          <rect x="786.68" y="383.92" width="12.59" height="1.41" fill="#cbd5e1" stroke-width="0"/>
        </g>
        <g>
          <rect x="782.85" y="406.01" width="2.75" height="2.75" fill="#2dd4bf" stroke-width="0"/>
          <rect x="786.68" y="406.68" width="12.59" height="1.41" fill="#cbd5e1" stroke-width="0"/>
        </g>
        <g>
          <rect x="782.85" y="410.56" width="2.75" height="2.75" fill="#2dd4bf" stroke-width="0"/>
          <rect x="786.68" y="411.23" width="12.59" height="1.41" fill="#cbd5e1" stroke-width="0"/>
        </g>
        <g>
          <rect x="786.68" y="374.14" width="2.75" height="2.75" fill="#14b8a6" stroke-width="0"/>
          <rect x="790.53" y="374.81" width="12.59" height="1.41" fill="#cbd5e1" stroke-width="0"/>
        </g>
        <g>
          <rect x="786.68" y="378.69" width="2.75" height="2.75" fill="#14b8a6" stroke-width="0"/>
          <rect x="790.53" y="379.36" width="17.36" height="1.41" fill="#cbd5e1" stroke-width="0"/>
        </g>
        <g>
          <rect x="786.68" y="387.8" width="2.75" height="2.75" fill="#14b8a6" stroke-width="0"/>
          <rect x="790.52" y="388.47" width="21.12" height="1.41" fill="#cbd5e1" stroke-width="0"/>
        </g>
        <g>
          <rect x="786.68" y="392.35" width="2.75" height="2.75" fill="#14b8a6" stroke-width="0"/>
          <rect x="790.52" y="393.02" width="14.27" height="1.41" fill="#cbd5e1" stroke-width="0"/>
        </g>
        <g>
          <rect x="790.52" y="396.9" width="2.75" height="2.75" fill="#0d9488" stroke-width="0"/>
          <rect x="794.34" y="397.57" width="23.5" height="1.41" fill="#cbd5e1" stroke-width="0"/>
        </g>
        <g>
          <rect x="790.52" y="401.45" width="2.75" height="2.75" fill="#0d9488" stroke-width="0"/>
          <rect x="794.34" y="402.13" width="14.35" height="1.41" fill="#cbd5e1" stroke-width="0"/>
        </g>
      </g>
    </g>
    <path d="m828.98,325.6h0c-.62,0-1.12-.5-1.12-1.13h0c0-.62.5-1.13,1.12-1.13h0c.62,0,1.12.5,1.12,1.13h0c0,.62-.5,1.13-1.12,1.13Z" fill="#4f5569" stroke-width="0"/>
    <rect x="833.44" y="323.35" width="13.48" height="2.25" fill="#f5ab35" stroke-width="0"/>
    <rect x="850.25" y="323.35" width="24.59" height="2.25" fill="#f43f5e" stroke-width="0"/>
    <path d="m828.98,332.23h0c-.62,0-1.12-.5-1.12-1.13h0c0-.62.5-1.13,1.12-1.13h0c.62,0,1.12.5,1.12,1.13h0c0,.62-.5,1.13-1.12,1.13Z" fill="#4f5569" stroke-width="0"/>
    <rect x="833.44" y="329.98" width="33.59" height="2.25" fill="#f97316" stroke-width="0"/>
    <rect x="870.37" y="329.98" width="59.27" height="2.25" fill="#14b8a6" stroke-width="0"/>
    <path d="m828.98,338.87h0c-.62,0-1.12-.5-1.12-1.13h0c0-.62.5-1.13,1.12-1.13h0c.62,0,1.12.5,1.12,1.13h0c0,.62-.5,1.13-1.12,1.13Z" fill="#4f5569" stroke-width="0"/>
    <rect x="833.44" y="336.61" width="13.48" height="2.25" fill="#f97316" stroke-width="0"/>
    <path d="m828.98,345.5h0c-.62,0-1.12-.5-1.12-1.13h0c0-.62.5-1.13,1.12-1.13h0c.62,0,1.12.5,1.12,1.13h0c0,.62-.5,1.13-1.12,1.13Z" fill="#4f5569" stroke-width="0"/>
    <rect x="833.44" y="343.25" width="7.8" height="2.25" fill="#f43f5e" stroke-width="0"/>
    <rect x="844.57" y="343.25" width="22.46" height="2.25" fill="#e5e7eb" stroke-width="0"/>
    <path d="m828.98,352.13h0c-.62,0-1.12-.5-1.12-1.13h0c0-.62.5-1.13,1.12-1.13h0c.62,0,1.12.5,1.12,1.13h0c0,.62-.5,1.13-1.12,1.13Z" fill="#4f5569" stroke-width="0"/>
    <rect x="840.18" y="349.88" width="13.48" height="2.25" fill="#e5e7eb" stroke-width="0"/>
    <rect x="856.99" y="349.88" width="29.67" height="2.25" fill="#06b6d4" stroke-width="0"/>
    <path d="m828.98,358.76h0c-.62,0-1.12-.5-1.12-1.13h0c0-.62.5-1.13,1.12-1.13h0c.62,0,1.12.5,1.12,1.13h0c0,.62-.5,1.13-1.12,1.13Z" fill="#4f5569" stroke-width="0"/>
    <rect x="840.18" y="356.51" width="101.04" height="2.25" fill="#14b8a6" stroke-width="0"/>
    <rect x="945.31" y="356.51" width="13.64" height="2.25" fill="#f5ab35" stroke-width="0"/>
    <rect x="945.31" y="356.32" width="13.64" height="2.25" fill="#f5ab35" stroke-width="0"/>
    <path d="m828.98,365.4h0c-.62,0-1.12-.5-1.12-1.13h0c0-.62.5-1.13,1.12-1.13h0c.62,0,1.12.5,1.12,1.13h0c0,.62-.5,1.13-1.12,1.13Z" fill="#4f5569" stroke-width="0"/>
    <rect x="847.92" y="363.14" width="139.25" height="2.25" fill="#06b6d4" stroke-width="0"/>
    <path d="m828.98,372.03h0c-.62,0-1.12-.5-1.12-1.13h0c0-.62.5-1.13,1.12-1.13h0c.62,0,1.12.5,1.12,1.13h0c0,.62-.5,1.13-1.12,1.13Z" fill="#4f5569" stroke-width="0"/>
    <rect x="847.92" y="369.78" width="84.06" height="2.25" fill="#06b6d4" stroke-width="0"/>
    <rect x="935.57" y="369.78" width="23.38" height="2.25" fill="#14b8a6" stroke-width="0"/>
    <path d="m828.98,378.66h0c-.62,0-1.12-.5-1.12-1.13h0c0-.62.5-1.13,1.12-1.13h0c.62,0,1.12.5,1.12,1.13h0c0,.62-.5,1.13-1.12,1.13Z" fill="#4f5569" stroke-width="0"/>
    <rect x="840.18" y="376.41" width="7.74" height="2.25" fill="#f43f5e" stroke-width="0"/>
    <path d="m828.98,385.21h0c-.62,0-1.12-.5-1.12-1.13h0c0-.62.5-1.13,1.12-1.13h0c.62,0,1.12.5,1.12,1.13h0c0,.62-.5,1.13-1.12,1.13Z" fill="#4f5569" stroke-width="0"/>
    <rect x="840.18" y="382.95" width="13.48" height="2.25" fill="#e5e7eb" stroke-width="0"/>
    <rect x="856.99" y="382.95" width="29.67" height="2.25" fill="#06b6d4" stroke-width="0"/>
    <path d="m828.98,391.84h0c-.62,0-1.12-.5-1.12-1.13h0c0-.62.5-1.13,1.12-1.13h0c.62,0,1.12.5,1.12,1.13h0c0,.62-.5,1.13-1.12,1.13Z" fill="#4f5569" stroke-width="0"/>
    <rect x="840.18" y="389.59" width="101.04" height="2.25" fill="#14b8a6" stroke-width="0"/>
    <rect x="945.31" y="389.59" width="13.64" height="2.25" fill="#f5ab35" stroke-width="0"/>
    <rect x="945.31" y="389.4" width="13.64" height="2.25" fill="#f5ab35" stroke-width="0"/>
    <path d="m828.98,398.47h0c-.62,0-1.12-.5-1.12-1.13h0c0-.62.5-1.13,1.12-1.13h0c.62,0,1.12.5,1.12,1.13h0c0,.62-.5,1.13-1.12,1.13Z" fill="#4f5569" stroke-width="0"/>
    <rect x="847.92" y="396.22" width="139.25" height="2.25" fill="#f43f5e" stroke-width="0"/>
    <path d="m828.98,405.11h0c-.62,0-1.12-.5-1.12-1.13h0c0-.62.5-1.13,1.12-1.13h0c.62,0,1.12.5,1.12,1.13h0c0,.62-.5,1.13-1.12,1.13Z" fill="#4f5569" stroke-width="0"/>
    <rect x="847.92" y="402.85" width="25.09" height="2.25" fill="#06b6d4" stroke-width="0"/>
    <rect x="877.41" y="402.85" width="54.57" height="2.25" fill="#e5e7eb" stroke-width="0"/>
    <rect x="935.57" y="402.85" width="23.38" height="2.25" fill="#14b8a6" stroke-width="0"/>
    <path d="m828.98,411.74h0c-.62,0-1.12-.5-1.12-1.13h0c0-.62.5-1.13,1.12-1.13h0c.62,0,1.12.5,1.12,1.13h0c0,.62-.5,1.13-1.12,1.13Z" fill="#4f5569" stroke-width="0"/>
    <rect x="840.18" y="409.49" width="7.74" height="2.25" fill="#f5ab35" stroke-width="0"/>
    <path d="m828.98,418.28h0c-.62,0-1.12-.5-1.12-1.13h0c0-.62.5-1.13,1.12-1.13h0c.62,0,1.12.5,1.12,1.13h0c0,.62-.5,1.13-1.12,1.13Z" fill="#4f5569" stroke-width="0"/>
    <rect x="840.18" y="416.03" width="13.48" height="2.25" fill="#e5e7eb" stroke-width="0"/>
    <rect x="856.99" y="416.03" width="29.67" height="2.25" fill="#06b6d4" stroke-width="0"/>
    <path d="m828.98,424.92h0c-.62,0-1.12-.5-1.12-1.13h0c0-.62.5-1.13,1.12-1.13h0c.62,0,1.12.5,1.12,1.13h0c0,.62-.5,1.13-1.12,1.13Z" fill="#4f5569" stroke-width="0"/>
    <rect x="840.18" y="422.66" width="101.04" height="2.25" fill="#14b8a6" stroke-width="0"/>
    <rect x="945.31" y="422.66" width="13.64" height="2.25" fill="#f5ab35" stroke-width="0"/>
    <rect x="945.31" y="422.48" width="13.64" height="2.25" fill="#14b8a6" stroke-width="0"/>
    <path d="m828.98,431.55h0c-.62,0-1.12-.5-1.12-1.13h0c0-.62.5-1.13,1.12-1.13h0c.62,0,1.12.5,1.12,1.13h0c0,.62-.5,1.13-1.12,1.13Z" fill="#4f5569" stroke-width="0"/>
    <rect x="847.92" y="429.3" width="139.25" height="2.25" fill="#06b6d4" stroke-width="0"/>
    <path d="m828.98,438.18h0c-.62,0-1.12-.5-1.12-1.13h0c0-.62.5-1.13,1.12-1.13h0c.62,0,1.12.5,1.12,1.13h0c0,.62-.5,1.13-1.12,1.13Z" fill="#4f5569" stroke-width="0"/>
    <rect x="847.92" y="435.93" width="84.06" height="2.25" fill="#e5e7eb" stroke-width="0"/>
    <rect x="935.57" y="435.93" width="23.38" height="2.25" fill="#ef4444" stroke-width="0"/>
    <rect x="963.79" y="435.93" width="23.38" height="2.25" fill="#e5e7eb" stroke-width="0"/>
    <path d="m828.98,444.82h0c-.62,0-1.12-.5-1.12-1.13h0c0-.62.5-1.13,1.12-1.13h0c.62,0,1.12.5,1.12,1.13h0c0,.62-.5,1.13-1.12,1.13Z" fill="#4f5569" stroke-width="0"/>
    <rect x="840.18" y="442.56" width="7.74" height="2.25" fill="#f5ab35" stroke-width="0"/>
    <path d="m1022.03,305c3.53,0,6.39,2.86,6.39,6.39v163.85h-257.89v-163.85c0-3.53,2.86-6.39,6.39-6.39h245.11m0-1.61h-245.11c-4.41,0-8,3.59-8,8v165.46h261.1v-165.46c0-4.41-3.59-8-8-8h0Z" fill="#94a3b8" stroke-width="0"/>
    <path d="m1022.03,305h-245.11c-3.53,0-6.39,2.86-6.39,6.39v163.85h257.89v-163.85c0-3.53-2.86-6.39-6.39-6.39Zm.77,164.62h-246.64v-158.23c0-.42.34-.77.77-.77h108.44v1.35c0,1.14.92,2.06,2.06,2.06h24.09c1.14,0,2.06-.92,2.06-2.06v-1.35h108.44c.42,0,.77.34.77.77v158.23Z" fill="#020617" stroke-width="0"/>
    <path d="m754.62,475.32h289.22v9.25c0,1.55-1.26,2.8-2.8,2.8h-283.62c-1.55,0-2.8-1.26-2.8-2.8v-9.25h0Z" fill="#94a3b8" stroke-width="0"/>
    <path d="m876.33,475.32h41.78v2.86c0,1.45-1.18,2.63-2.63,2.63h-36.52c-1.45,0-2.63-1.18-2.63-2.63v-2.86h0Z" fill="#64748b" stroke-width="0"/>
    <path d="m899.48,308.69c.33,0,.6.27.6.6s-.27.6-.6.6-.6-.27-.6-.6.27-.6.6-.6m0-1c-.89,0-1.61.72-1.61,1.61s.72,1.61,1.61,1.61,1.61-.72,1.61-1.61-.72-1.61-1.61-1.61h0Z" fill="#1e293b" stroke-width="0"/>
    <path d="m313.76,452.99h-16.6c-1,0-1.92.42-2.57,1.07-.69.69-1.11,1.61-1.11,2.61v6.59c0,1.73.73,3.3,1.88,4.45,1.15,1.15,2.72,1.88,4.45,1.88h13.96c1.73,0,3.3-.73,4.45-1.88,1.15-1.15,1.84-2.72,1.84-4.45v-3.99c0-1.73-.69-3.3-1.84-4.45-1.15-1.15-2.72-1.84-4.45-1.84h0Zm-16.6-5.56h16.6c3.26,0,6.21,1.34,8.36,3.49,2.15,2.15,3.49,5.1,3.49,8.36v3.99c0,3.26-1.34,6.25-3.49,8.4-2.15,2.15-5.1,3.49-8.36,3.49h-13.96c-3.26,0-6.25-1.34-8.4-3.49-2.15-2.15-3.49-5.14-3.49-8.4v-6.59c0-2.53,1.04-4.87,2.72-6.52,1.69-1.69,3.99-2.72,6.52-2.72h0Z" fill="#0d43a7" stroke-width="0"/>
    <path d="m300.38,447.43h13.38c3.26,0,6.21,1.34,8.36,3.49,2.15,2.15,3.49,5.1,3.49,8.36v3.99c0,3.26-1.34,6.25-3.49,8.4-2.15,2.15-5.1,3.49-8.36,3.49h-11.81c-.54-1.88-.96-3.72-1.3-5.56h13.11c1.73,0,3.3-.73,4.45-1.88,1.15-1.15,1.84-2.72,1.84-4.45v-3.99c0-1.73-.69-3.3-1.84-4.45-1.15-1.15-2.72-1.84-4.45-1.84h-13.88c.11-2.15.31-4.03.5-5.56h0Z" fill="#0a3480" stroke-width="0"/>
    <path d="m341.56,487.38h-20.24c-18.48-7.02-17.21-27.87-17.21-44.63h74.88c0,16.75,1.27,37.61-17.21,44.63h-20.2Z" fill="#255cc0" fill-rule="evenodd" stroke-width="0"/>
    <path d="m329.63,487.38h-8.32c-18.48-7.02-17.21-27.87-17.21-44.63h15.37c0,16.75-.77,37.61,10.16,44.63h0Z" fill="#0d43a7" fill-rule="evenodd" stroke-width="0"/>
    <path d="m371.88,458.74c.08-.77.73-1.34,1.5-1.3.77.04,1.34.69,1.3,1.46-.27,4.33-.88,8.63-2.3,12.46-1.46,3.95-3.76,7.44-7.32,10.12-.57.46-1.46.35-1.92-.27-.46-.61-.35-1.5.27-1.96,3.07-2.3,5.06-5.37,6.36-8.86,1.3-3.57,1.88-7.55,2.11-11.65h0Zm.19-10.2c0-.77.61-1.38,1.38-1.38s1.38.61,1.38,1.38v.12c0,1.84.04,3.72,0,5.6,0,.77-.65,1.38-1.42,1.38s-1.38-.65-1.34-1.42v-5.67h0Z" fill="#6c92d8" stroke-width="0"/>
  </g>
  <g>
    <g>
      <path d="m291.85,97.93h-11.91c-4.37,0-7.93-3.56-7.93-7.93v-33.41l-2-2c-1.11-1.11-1.11-2.9,0-4.01l2-2V15.17c0-4.37,3.56-7.93,7.93-7.93h11.91c1.56,0,2.83,1.27,2.83,2.83s-1.27,2.83-2.83,2.83h-11.91c-1.25,0-2.26,1.01-2.26,2.26v34.58c0,.75-.3,1.47-.83,2l-.83.83.83.83c.53.53.83,1.25.83,2v34.58c0,1.25,1.01,2.26,2.26,2.26h11.91c1.56,0,2.83,1.27,2.83,2.83s-1.27,2.83-2.83,2.83Z" fill="#4b5563" stroke-width="0"/>
      <path d="m349.1,97.93h-11.91c-1.56,0-2.83-1.27-2.83-2.83s1.27-2.83,2.83-2.83h11.91c1.25,0,2.26-1.01,2.26-2.26v-34.58c0-.75.3-1.47.83-2l.83-.83-.83-.83c-.53-.53-.83-1.25-.83-2V15.17c0-1.25-1.01-2.26-2.26-2.26h-11.91c-1.56,0-2.83-1.27-2.83-2.83s1.27-2.83,2.83-2.83h11.91c4.37,0,7.93,3.56,7.93,7.93v33.41l2,2c1.11,1.11,1.11,2.9,0,4.01l-2,2v33.41c0,4.37-3.56,7.93-7.93,7.93Z" fill="#4b5563" stroke-width="0"/>
      <path d="m302.24,85.65c-.74,0-1.47-.29-2-.83l-30.23-30.23c-1.11-1.11-1.11-2.9,0-4.01l30.23-30.23c1.11-1.11,2.9-1.11,4.01,0s1.11,2.9,0,4.01l-28.23,28.23,25.21,25.2,22.95-56.5c.36-.88,1.13-1.52,2.07-1.71.92-.19,1.89.1,2.56.77l30.23,30.23c1.11,1.11,1.11,2.9,0,4.01l-30.23,30.23c-1.11,1.11-2.9,1.11-4.01,0-1.11-1.11-1.11-2.9,0-4.01l28.23-28.23-25.2-25.2-22.96,56.5c-.36.88-1.13,1.52-2.06,1.71-.19.04-.38.06-.56.06Z" fill="#14b8a6" stroke-width="0"/>
    </g>
    <g>
      <path d="m383.12,44.67h13.76c.38,4.08,2.95,6.05,6.58,6.05s6.2-1.89,6.2-4.99c0-9.83-26.53-4.54-26.38-23.36,0-10.05,8.24-15.65,19.35-15.65s19.35,5.75,19.88,15.88h-13.99c-.23-3.4-2.65-5.44-6.12-5.52-3.1-.07-5.44,1.51-5.44,4.84,0,9.22,26.23,5.07,26.23,22.83,0,8.92-6.96,16.33-19.35,16.33-11.41,0-20.33-5.67-20.71-16.4Z" fill="#475569" stroke-width="0"/>
      <path d="m445.11,17.77c6.27,0,10.74,2.87,13,6.58v-5.97h12.93v42.18h-12.93v-5.97c-2.34,3.7-6.8,6.58-13.08,6.58-10.28,0-18.52-8.47-18.52-21.77s8.24-21.62,18.6-21.62Zm3.78,11.26c-4.84,0-9.22,3.63-9.22,10.35s4.38,10.51,9.22,10.51,9.22-3.7,9.22-10.43-4.31-10.43-9.22-10.43Z" fill="#475569" stroke-width="0"/>
      <path d="m528.22,29.1c-4.92,0-8.09,3.03-8.09,8.54v22.91h-12.85v-22.91c0-5.52-3.18-8.54-8.09-8.54s-8.09,3.03-8.09,8.54v22.91h-12.93V18.37h12.93v5.29c2.49-3.4,6.8-5.74,12.32-5.74,6.35,0,11.49,2.79,14.36,7.86,2.8-4.46,8.09-7.86,14.21-7.86,10.43,0,17.16,6.65,17.16,17.99v24.64h-12.85v-22.91c0-5.52-3.18-8.54-8.09-8.54Z" fill="#475569" stroke-width="0"/>
      <path d="m611.65,24.19c0,6.65-3.63,12.93-11.79,15.34l12.25,21.02h-14.59l-11.03-20.03h-3.1v20.03h-12.93V7.48h21.7c13,0,19.5,7.48,19.5,16.71Zm-20.26-5.97h-8.01v13.15h8.01c4.84,0,7.11-2.49,7.11-6.65,0-3.93-2.27-6.5-7.11-6.5Z" fill="#475569" stroke-width="0"/>
      <path d="m632.83,17.77c6.27,0,10.74,2.87,13,6.58v-5.97h12.93v42.18h-12.93v-5.97c-2.34,3.7-6.8,6.58-13.08,6.58-10.28,0-18.52-8.47-18.52-21.77s8.24-21.62,18.6-21.62Zm3.78,11.26c-4.84,0-9.22,3.63-9.22,10.35s4.38,10.51,9.22,10.51,9.22-3.7,9.22-10.43-4.31-10.43-9.22-10.43Z" fill="#475569" stroke-width="0"/>
      <path d="m686.91,28.73c-4.92,0-8.09,3.17-8.09,8.92v22.91h-12.93V18.37h12.93v5.59c2.57-3.55,7.1-6.04,12.78-6.04,9.75,0,16.25,6.65,16.25,17.99v24.64h-12.85v-22.91c0-5.75-3.18-8.92-8.09-8.92Z" fill="#475569" stroke-width="0"/>
      <path d="m727.63,4.61v30.92l12.78-17.16h15.95l-17.54,21.17,17.69,21.02h-16.03l-12.85-17.69v17.69h-12.93V4.61h12.93Z" fill="#475569" stroke-width="0"/>
      <path d="m757.84,7.03c0-3.93,3.1-7.03,7.71-7.03s7.64,3.1,7.64,7.03-3.1,6.95-7.64,6.95-7.71-3.1-7.71-6.95Zm14.14,11.34v42.18h-12.93V18.37h12.93Z" fill="#475569" stroke-width="0"/>
      <path d="m800.09,28.73c-4.92,0-8.09,3.17-8.09,8.92v22.91h-12.93V18.37h12.93v5.59c2.57-3.55,7.1-6.04,12.78-6.04,9.75,0,16.25,6.65,16.25,17.99v24.64h-12.85v-22.91c0-5.75-3.18-8.92-8.09-8.92Z" fill="#475569" stroke-width="0"/>
    </g>
    <g>
      <path d="m387.42,98.11v-25.62h16.69v3.99h-11.75v6.85h9.44v3.88h-9.44v10.91h-4.94Z" fill="#64748b" stroke-width="0"/>
      <path d="m412.51,98.55c-1.51,0-2.8-.31-3.86-.93-1.06-.62-1.87-1.54-2.42-2.75-.55-1.21-.82-2.7-.82-4.48v-10.72h4.9v10.25c0,1.49.31,2.61.93,3.35s1.58,1.11,2.87,1.11c.83,0,1.56-.19,2.21-.56.65-.38,1.15-.93,1.52-1.65s.55-1.59.55-2.62v-9.88h4.94v18.45h-4.35l-.37-3c-.56,1.05-1.36,1.88-2.4,2.51s-2.28.93-3.72.93Z" fill="#64748b" stroke-width="0"/>
      <path d="m427.16,98.11v-26.35h4.94v26.35h-4.94Z" fill="#64748b" stroke-width="0"/>
      <path d="m435.97,98.11v-26.35h4.94v26.35h-4.94Z" fill="#64748b" stroke-width="0"/>
      <path d="m444.58,89.4v-4.13h15.44v4.13h-15.44Z" fill="#64748b" stroke-width="0"/>
      <path d="m471.08,98.55c-1.71,0-3.18-.27-4.41-.8-1.23-.54-2.2-1.28-2.91-2.21-.71-.94-1.11-2.02-1.21-3.24h4.94c.1.44.29.85.59,1.24.29.39.68.7,1.17.92.49.22,1.07.33,1.76.33s1.2-.09,1.63-.27c.43-.18.75-.43.95-.75s.31-.65.31-.99c0-.51-.15-.9-.46-1.17-.31-.27-.74-.5-1.3-.7s-1.24-.37-2.05-.51c-.88-.17-1.74-.38-2.58-.64-.84-.26-1.59-.59-2.25-.99-.66-.4-1.18-.9-1.58-1.5s-.58-1.35-.58-2.25c0-1.07.29-2.05.88-2.93.58-.88,1.44-1.58,2.58-2.09,1.13-.51,2.47-.77,4.01-.77,2.24,0,4.02.5,5.31,1.5,1.3,1,2.06,2.38,2.31,4.14h-4.65c-.14-.59-.47-1.04-.97-1.35-.5-.32-1.17-.48-2-.48s-1.52.16-2,.48-.71.72-.71,1.21c0,.34.15.65.46.92s.74.5,1.3.69,1.24.38,2.05.55c1.41.29,2.66.63,3.73,1.01,1.07.38,1.92.92,2.53,1.61.61.7.92,1.7.92,3.02,0,1.17-.32,2.22-.95,3.13-.63.91-1.53,1.63-2.69,2.14s-2.53.77-4.12.77Z" fill="#64748b" stroke-width="0"/>
      <path d="m489.94,98.11c-1.27,0-2.39-.2-3.37-.61-.98-.4-1.73-1.07-2.27-2.01-.54-.94-.81-2.23-.81-3.86v-7.83h-3.18v-4.14h3.18l.55-5.05h4.39v5.05h4.87v4.14h-4.87v7.9c0,.83.18,1.41.55,1.72.37.32.99.48,1.87.48h2.38v4.21h-3.3Z" fill="#64748b" stroke-width="0"/>
      <path d="m502.4,98.55c-1.51,0-2.77-.25-3.77-.75-1-.5-1.75-1.17-2.25-2.01-.5-.84-.75-1.78-.75-2.8,0-1.14.28-2.14.86-3,.57-.85,1.45-1.52,2.62-1.99,1.17-.48,2.66-.72,4.47-.72h4.5c0-.93-.11-1.68-.35-2.27s-.61-1.03-1.14-1.32c-.52-.29-1.21-.44-2.07-.44-.93,0-1.72.2-2.36.59s-1.04,1.01-1.19,1.87h-4.79c.12-1.34.55-2.49,1.3-3.44.74-.95,1.73-1.69,2.96-2.23,1.23-.54,2.61-.8,4.12-.8,1.73,0,3.24.29,4.52.86,1.28.58,2.25,1.42,2.93,2.53.67,1.11,1.01,2.46,1.01,4.04v11.45h-4.14l-.55-2.82c-.27.49-.59.93-.97,1.32-.38.39-.82.73-1.32,1.03-.5.29-1.04.52-1.63.68-.58.15-1.25.24-2.01.24Zm1.21-3.8c.61,0,1.17-.12,1.66-.35.5-.23.93-.55,1.3-.97.37-.41.66-.88.88-1.39.22-.51.37-1.07.44-1.69v-.04h-3.77c-.78,0-1.41.09-1.89.28-.48.18-.82.44-1.04.79-.22.34-.33.73-.33,1.17,0,.46.11.86.33,1.19.22.33.55.58.97.75.43.17.91.26,1.45.26Z" fill="#64748b" stroke-width="0"/>
      <path d="m525.49,98.55c-1.86,0-3.5-.41-4.94-1.24s-2.56-1.96-3.37-3.41c-.8-1.44-1.21-3.07-1.21-4.9,0-1.95.4-3.65,1.21-5.1.8-1.45,1.93-2.59,3.37-3.42,1.44-.83,3.09-1.24,4.94-1.24,2.37,0,4.35.62,5.96,1.85,1.61,1.23,2.64,2.93,3.08,5.11h-5.24c-.22-.83-.67-1.49-1.35-2-.68-.5-1.51-.75-2.49-.75-.86,0-1.62.22-2.29.66s-1.2,1.06-1.58,1.87c-.38.8-.56,1.78-.56,2.93,0,.83.11,1.58.33,2.27.22.69.52,1.26.92,1.72.39.46.85.82,1.39,1.08.54.26,1.13.38,1.79.38s1.21-.11,1.74-.33c.52-.22.97-.54,1.34-.95.37-.41.62-.9.77-1.46h5.24c-.44,2.1-1.47,3.78-3.1,5.05-1.62,1.27-3.6,1.9-5.95,1.9Z" fill="#64748b" stroke-width="0"/>
      <path d="m537.58,98.11v-26.35h4.94v26.35h-4.94Zm12.08,0l-7.87-10.1,7.07-8.35h5.85l-9.11,10.4-.04-3.92,10.25,11.97h-6.15Z" fill="#64748b" stroke-width="0"/>
      <path d="m569.6,98.11l-6.7-25.62h5.27l4.47,20.02,5.23-20.02h5.49l5.09,20.02,4.5-20.02h5.34l-6.92,25.62h-5.89l-4.94-18.67-5.05,18.67h-5.89Z" fill="#64748b" stroke-width="0"/>
      <path d="m608.1,98.55c-1.86,0-3.49-.4-4.92-1.21s-2.54-1.92-3.33-3.35-1.19-3.07-1.19-4.92.39-3.62,1.19-5.09c.79-1.46,1.9-2.62,3.31-3.48,1.41-.85,3.06-1.28,4.94-1.28s3.43.4,4.79,1.21c1.37.81,2.43,1.89,3.18,3.24s1.14,2.91,1.14,4.67c0,.24,0,.52-.02.82-.01.31-.03.62-.06.93h-14.93v-3.04h10.03c-.07-1.15-.49-2.07-1.27-2.78-.77-.71-1.71-1.06-2.83-1.06-.86,0-1.63.2-2.32.61s-1.25.99-1.66,1.76c-.42.77-.62,1.74-.62,2.91v1.06c0,1,.19,1.87.57,2.62.38.75.91,1.32,1.59,1.74.68.42,1.48.62,2.38.62s1.68-.19,2.25-.57c.57-.38,1.02-.88,1.34-1.52h5.02c-.32,1.15-.89,2.19-1.7,3.13-.82.94-1.81,1.67-2.97,2.2s-2.46.79-3.9.79Z" fill="#64748b" stroke-width="0"/>
      <path d="m631.23,98.55c-.93,0-1.77-.12-2.52-.37s-1.41-.57-1.96-.99c-.55-.41-1.03-.9-1.44-1.47l-.55,2.38h-4.39v-26.35h4.94v10.5c.58-.88,1.36-1.6,2.32-2.18.97-.57,2.17-.86,3.61-.86,1.69,0,3.19.43,4.52,1.28,1.33.86,2.39,2.01,3.17,3.46.78,1.45,1.17,3.09,1.17,4.92s-.38,3.51-1.16,4.96c-.77,1.45-1.82,2.6-3.15,3.44-1.33.84-2.85,1.26-4.56,1.26Zm-1.13-4.32c.95,0,1.8-.23,2.54-.68.75-.45,1.33-1.07,1.76-1.87.43-.79.64-1.72.64-2.8s-.21-1.95-.64-2.76c-.42-.82-1.01-1.45-1.76-1.9s-1.59-.68-2.54-.68-1.8.23-2.54.68c-.75.45-1.32,1.08-1.74,1.89-.41.8-.62,1.75-.62,2.82s.21,1.97.62,2.76c.42.79,1,1.42,1.74,1.87.74.45,1.59.68,2.54.68Z" fill="#64748b" stroke-width="0"/>
      <path d="m650.04,98.11v-25.62h8.57c2.95,0,5.41.53,7.36,1.59,1.95,1.06,3.4,2.55,4.34,4.47.94,1.92,1.41,4.17,1.41,6.75s-.47,4.83-1.41,6.75c-.94,1.92-2.38,3.41-4.34,4.47-1.95,1.06-4.41,1.59-7.36,1.59h-8.57Zm4.94-4.25h3.37c2.07,0,3.72-.34,4.94-1.02,1.22-.68,2.09-1.67,2.6-2.95s.77-2.81.77-4.59-.25-3.35-.77-4.63-1.38-2.26-2.6-2.95c-1.22-.68-2.87-1.02-4.94-1.02h-3.37v17.16Z" fill="#64748b" stroke-width="0"/>
      <path d="m683.65,98.55c-1.86,0-3.49-.4-4.92-1.21s-2.54-1.92-3.33-3.35-1.19-3.07-1.19-4.92.39-3.62,1.19-5.09c.79-1.46,1.9-2.62,3.31-3.48,1.41-.85,3.06-1.28,4.94-1.28s3.43.4,4.79,1.21c1.37.81,2.43,1.89,3.18,3.24s1.14,2.91,1.14,4.67c0,.24,0,.52-.02.82-.01.31-.03.62-.06.93h-14.93v-3.04h10.03c-.07-1.15-.49-2.07-1.27-2.78-.77-.71-1.71-1.06-2.83-1.06-.86,0-1.63.2-2.32.61s-1.25.99-1.66,1.76c-.42.77-.62,1.74-.62,2.91v1.06c0,1,.19,1.87.57,2.62.38.75.91,1.32,1.59,1.74.68.42,1.48.62,2.38.62s1.68-.19,2.25-.57c.57-.38,1.02-.88,1.34-1.52h5.02c-.32,1.15-.89,2.19-1.7,3.13-.82.94-1.81,1.67-2.97,2.2s-2.46.79-3.9.79Z" fill="#64748b" stroke-width="0"/>
      <path d="m700.17,98.11l-6.77-18.45h5.2l4.61,13.8,4.58-13.8h5.12l-6.73,18.45h-6Z" fill="#64748b" stroke-width="0"/>
      <path d="m722.98,98.55c-1.86,0-3.49-.4-4.92-1.21s-2.54-1.92-3.33-3.35-1.19-3.07-1.19-4.92.39-3.62,1.19-5.09c.79-1.46,1.9-2.62,3.31-3.48,1.41-.85,3.06-1.28,4.94-1.28s3.43.4,4.79,1.21c1.37.81,2.43,1.89,3.18,3.24s1.14,2.91,1.14,4.67c0,.24,0,.52-.02.82-.01.31-.03.62-.06.93h-14.93v-3.04h10.03c-.07-1.15-.49-2.07-1.27-2.78-.77-.71-1.71-1.06-2.83-1.06-.86,0-1.63.2-2.32.61s-1.25.99-1.66,1.76c-.42.77-.62,1.74-.62,2.91v1.06c0,1,.19,1.87.57,2.62.38.75.91,1.32,1.59,1.74.68.42,1.48.62,2.38.62s1.68-.19,2.25-.57c.57-.38,1.02-.88,1.34-1.52h5.02c-.32,1.15-.89,2.19-1.7,3.13-.82.94-1.81,1.67-2.97,2.2s-2.46.79-3.9.79Z" fill="#64748b" stroke-width="0"/>
      <path d="m735.22,98.11v-26.35h4.94v26.35h-4.94Z" fill="#64748b" stroke-width="0"/>
      <path d="m752.76,98.55c-1.78,0-3.37-.41-4.78-1.23-1.41-.82-2.51-1.95-3.33-3.41-.82-1.45-1.23-3.11-1.23-5s.41-3.62,1.23-5.07c.82-1.45,1.93-2.59,3.35-3.41,1.41-.82,3.01-1.23,4.79-1.23s3.37.41,4.76,1.23c1.39.82,2.49,1.95,3.31,3.39s1.23,3.12,1.23,5.05-.41,3.58-1.23,5.03c-.82,1.45-1.93,2.59-3.33,3.41-1.4.82-2.99,1.23-4.78,1.23Zm0-4.28c.78,0,1.49-.2,2.14-.61s1.17-1.01,1.58-1.81.61-1.79.61-2.96-.2-2.19-.59-2.99-.9-1.39-1.54-1.79-1.34-.6-2.12-.6-1.54.2-2.2.6c-.66.4-1.18,1-1.58,1.79-.39.79-.58,1.79-.58,2.99s.19,2.16.56,2.96c.38.8.9,1.41,1.56,1.81.66.4,1.38.61,2.16.61Z" fill="#64748b" stroke-width="0"/>
      <path d="m765.32,106.17v-26.5h4.39l.55,2.52c.37-.51.82-.99,1.37-1.44.55-.45,1.19-.82,1.94-1.1s1.61-.42,2.58-.42c1.76,0,3.3.42,4.61,1.26s2.36,2,3.13,3.46c.77,1.46,1.16,3.12,1.16,4.97s-.39,3.51-1.17,4.96c-.78,1.45-1.83,2.59-3.15,3.42s-2.83,1.24-4.54,1.24c-1.34,0-2.51-.25-3.49-.75-.99-.5-1.8-1.19-2.43-2.07v10.43h-4.94Zm9.74-11.93c.95,0,1.8-.22,2.54-.66s1.33-1.06,1.76-1.85c.43-.79.64-1.71.64-2.76s-.21-2.02-.64-2.83c-.42-.82-1.01-1.45-1.76-1.9s-1.59-.68-2.54-.68-1.8.23-2.54.68c-.75.45-1.32,1.08-1.74,1.89-.41.8-.62,1.75-.62,2.82s.21,1.97.62,2.76c.42.79,1,1.42,1.74,1.87.74.45,1.59.68,2.54.68Z" fill="#64748b" stroke-width="0"/>
      <path d="m797.06,98.55c-1.86,0-3.49-.4-4.92-1.21s-2.54-1.92-3.33-3.35-1.19-3.07-1.19-4.92.39-3.62,1.19-5.09c.79-1.46,1.9-2.62,3.31-3.48,1.41-.85,3.06-1.28,4.94-1.28s3.43.4,4.79,1.21c1.37.81,2.43,1.89,3.18,3.24s1.14,2.91,1.14,4.67c0,.24,0,.52-.02.82-.01.31-.03.62-.06.93h-14.93v-3.04h10.03c-.07-1.15-.49-2.07-1.27-2.78-.77-.71-1.71-1.06-2.83-1.06-.86,0-1.63.2-2.32.61s-1.25.99-1.66,1.76c-.42.77-.62,1.74-.62,2.91v1.06c0,1,.19,1.87.57,2.62.38.75.91,1.32,1.59,1.74.68.42,1.48.62,2.38.62s1.68-.19,2.25-.57c.57-.38,1.02-.88,1.34-1.52h5.02c-.32,1.15-.89,2.19-1.7,3.13-.82.94-1.81,1.67-2.97,2.2s-2.46.79-3.9.79Z" fill="#64748b" stroke-width="0"/>
      <path d="m809.31,98.11v-18.45h4.39l.44,3.37c.46-.78,1.03-1.46,1.7-2.03.67-.57,1.44-1.01,2.31-1.32s1.82-.46,2.87-.46v5.23h-1.69c-.73,0-1.41.08-2.03.24-.62.16-1.17.44-1.63.84-.46.4-.82.93-1.06,1.58-.24.65-.37,1.47-.37,2.47v8.53h-4.94Z" fill="#64748b" stroke-width="0"/>
    </g>
  </g>
</svg>